<?xml version="1.0" encoding="utf-8"?>
<svg version="1.1" id="AiRlind Logo" xmlns="http://www.w3.org/2000/svg" xmlns:xlink="http://www.w3.org/1999/xlink" x="0px" y="0px"
	 viewBox="0 0 331.6 85" style="enable-background:new 0 0 331.6 85;" xml:space="preserve">
<style type="text/css">
	.st0{fill:#2A2A2F;}
	.st1{fill:#38ABE2;}
	.st2{fill:#86C1E0;}
	.st3{fill:#8ACBE8;}
	.st4{fill:#77BEEA;}
</style>
<path id="XMLID_41_" class="st0" d="M99.1,17.6c0,1.8-1.5,3.5-3.7,3.5c-1.8,0-3.5-1.6-3.5-3.5v-6.4c0-1.8,1.6-3.5,3.7-3.5
	c1.9,0,3.5,1.6,3.5,3.5V17.6z M99.4,80.9c0,2-1.5,3.5-3.7,3.5c-1.8,0-3.5-1.5-3.5-3.5V32.2c0-2.1,1.6-3.5,3.7-3.5
	c1.9,0,3.5,1.4,3.5,3.5V80.9z"/>
<path id="XMLID_38_" class="st0" d="M164.8,78.5c0.3,0.8,0.6,1.8,0.4,2.6c-0.1,1-0.6,1.7-1.8,2.3h0.1c-1.6,1.1-3.8,0.4-4.8-1.1
	c-6-9.7-12.4-19.8-18.4-29.6c-1.4,0.1-2.9,0.1-4.4,0.1c-3,0-6.2-0.1-9-0.2c-0.8,0-1.6-0.1-2.4-0.1H124v28.8c0,2-1.5,3.6-3.6,3.6
	s-3.6-1.6-3.6-3.6V12.2c0-1.4,0.8-2.6,2.2-3.2c0.1-0.1,0.2-0.1,0.3-0.1c0.1-0.1,0.3-0.1,0.4-0.1c0.1,0,0.2-0.1,0.3-0.1h1
	c1.6,0,4.4-0.2,5.5-0.3c3.7-0.2,7.4-0.4,10.9-0.4c6,0,11.6,0.8,16.3,3c6.5,3.5,10,11.4,10.3,18.7c0.1,4-0.6,8.3-2.6,12
	c-1.6,3.2-3.9,5.7-7.3,7.6c-1.8,1.1-3.9,1.8-6.1,2.4L164.8,78.5z M124.8,45.4c0.8,0,1.5,0.1,2.3,0.1c2.7,0.1,5.7,0.3,8.6,0.3
	c5.7,0,11.3-0.7,15.1-2.8c1.9-1.1,3.5-2.7,4.3-4.7c1.4-2.3,1.8-5.4,1.7-8.4c-0.1-2.9-0.9-5.9-2.2-8.3c-1-1.8-2.4-3.5-4.1-4.3
	c-3.4-1.7-7.9-2.3-13-2.3c-3.4,0-6.7,0.2-10.4,0.4c-0.1-0.1-1.8,0.1-3.1,0.2v29.7L124.8,45.4z"/>
<path id="XMLID_11_" class="st0" d="M188.1,80.7c0,1.8-1.6,3.4-3.7,3.4c-1.8,0-3.5-1.5-3.5-3.4v-69c0-2,1.6-3.5,3.7-3.5
	c1.8,0,3.5,1.5,3.5,3.5V80.7z"/>
<path id="XMLID_34_" class="st0" d="M213.6,17.6c0,1.8-1.5,3.5-3.7,3.5c-1.8,0-3.5-1.6-3.5-3.5v-6.4c0-1.8,1.6-3.5,3.7-3.5
	c2,0,3.5,1.6,3.5,3.5V17.6z M213.8,80.9c0,2-1.5,3.5-3.7,3.5c-1.8,0-3.5-1.5-3.5-3.5V32.2c0-2.1,1.6-3.5,3.7-3.5
	c2,0,3.5,1.4,3.5,3.5V80.9z"/>
<path id="XMLID_8_" class="st0" d="M238.2,80.8c0,1.8-1.6,3.4-3.7,3.4c-1.8,0-3.5-1.5-3.5-3.4V31.9c0-2,1.6-3.5,3.7-3.5
	c1.8,0,3.5,1.5,3.5,3.5v1.2c5.2-2,13-4.6,19.5-4.6c8.7,0,15.8,4,15.8,17.5v34.8c0,1.8-1.4,3.4-3.6,3.4c-1.9,0-3.5-1.5-3.5-3.4V46
	c-0.1-8.2-4-10.4-8.8-10.4c-6.2,0-15,3-19.2,4.9l-0.3,0.2V80.8z"/>
<path id="XMLID_30_" class="st0" d="M326,83.2c-4.3,0.8-11.7,1.4-16.1,1.3c-5.6-0.1-10.7-1.4-14.8-4.5c-5.4-4.3-7.8-14.9-7.9-23.6
	c0-9.1,2.4-21.1,9.1-26.1c3.7-2.7,8-3.5,12.7-3.5c3.3,0,7.3,0.4,10.3,0.8c1,0.2,2,0.3,2.9,0.3V11.7c0-2,1.5-3.4,3.7-3.4
	c1.8,0,3.4,1.4,3.4,3.4v67.9c0,1.5-1,2.8-2.4,3.3L326,83.2z M318.8,34.8c-0.2,0-0.3-0.1-0.5-0.1c-2.8-0.3-6.7-0.8-9.4-0.8
	c-3.3,0-6.3,0.7-8.6,2.2c-0.5,0.5-1.2,1.1-1.7,1.8c-3,3.9-4.4,11.7-4.4,18.5c0.1,6.8,1.6,13.5,4,16.7l1.2,1.2
	c2.7,2,6.7,2.8,10.6,2.9c2.8,0.1,8-0.2,12.1-0.7V35C321,35,319.8,34.9,318.8,34.8z"/>
<g id="XMLID_26_">
	<line id="XMLID_5_" class="st1" x1="6.9" y1="76.8" x2="35.1" y2="1.8"/>
	<g id="XMLID_27_">
		<path id="XMLID_4_" class="st1" d="M9.8,81.1c9.5-25.2,18.7-49.8,28.2-75.1c1.7-4.4-5.4-6.3-7-1.9c-9.4,25-18.8,50-28.2,75.1
			C1.1,83.6,8.2,85.5,9.8,81.1L9.8,81.1z"/>
	</g>
</g>
<g id="XMLID_23_">
	<g id="XMLID_24_">
		<path id="XMLID_3_" class="st2" d="M31.7,4.5c9.5,25.5,19,51,28.5,76.6c1.6,4.4,8.7,2.5,7-1.9c-9.5-25.5-19-51-28.5-76.6
			C37.1-1.8,30,0.1,31.7,4.5L31.7,4.5z"/>
	</g>
</g>
<g id="XMLID_20_">
	<g id="XMLID_21_">
		<path id="XMLID_16_" class="st3" d="M65.5,77c-15-10.3-30.1-20.7-45.1-31c-3.9-2.7-7.5,3.7-3.7,6.3c15,10.3,30.1,20.7,45.1,31
			C65.7,86,69.4,79.6,65.5,77L65.5,77z"/>
	</g>
</g>
<g id="XMLID_1_">
	<g id="XMLID_18_">
		<path id="XMLID_17_" class="st4" d="M20.4,52.3c17.6-8.7,35.3-17.5,52.9-26.2c4.2-2.1,0.5-8.4-3.7-6.3C52,28.5,34.4,37.2,16.7,46
			C12.5,48.1,16.2,54.4,20.4,52.3L20.4,52.3z"/>
	</g>
</g>
<g id="XMLID_2_">
</g>
<g id="XMLID_19_">
</g>
<g id="XMLID_22_">
</g>
<g id="XMLID_25_">
</g>
<g id="XMLID_28_">
</g>
<g id="XMLID_29_">
</g>
</svg>
